<?xml version="1.0" encoding="UTF-8"?><svg id="_レイヤー_2" xmlns="http://www.w3.org/2000/svg" viewBox="0 0 336 132.36"><defs><style>.cls-1{fill:#00b900;}.cls-1,.cls-2{stroke-width:0px;}.cls-3{fill:none;stroke:#00b900;stroke-miterlimit:10;}.cls-2{fill:#fff;}</style></defs><g id="_レイヤー_1-2"><rect class="cls-1" x=".5" y=".5" width="335" height="131.36" rx="11.46" ry="11.46"/><path class="cls-2" d="M165.37,33.11c-.94,0-1.77-.21-2.49-.62s-1.28-.99-1.68-1.74c-.4-.75-.61-1.61-.61-2.58,0-.81.21-1.54.63-2.21.42-.66.93-1.16,1.54-1.5-.52-.35-.94-.8-1.28-1.36-.33-.56-.5-1.21-.5-1.95,0-.9.19-1.69.56-2.36.37-.68.89-1.21,1.55-1.59s1.42-.57,2.27-.57,1.63.19,2.3.57c.66.38,1.18.91,1.55,1.59s.56,1.47.56,2.36c0,.75-.17,1.4-.51,1.95-.34.56-.76,1.01-1.24,1.36.61.33,1.12.83,1.53,1.5.41.66.62,1.4.62,2.21,0,.99-.21,1.85-.62,2.59-.41.74-.97,1.31-1.69,1.72-.72.41-1.55.62-2.49.62ZM165.37,30.78c.76,0,1.34-.22,1.75-.65.4-.43.6-1.09.6-1.98,0-.82-.2-1.47-.6-1.95-.4-.48-.99-.72-1.75-.72s-1.32.24-1.72.72c-.4.48-.61,1.13-.61,1.95,0,1.75.78,2.63,2.33,2.63ZM165.37,23.54c.64,0,1.12-.21,1.45-.62s.49-.99.49-1.74-.18-1.3-.55-1.67c-.37-.37-.83-.55-1.39-.55s-1.03.18-1.39.55c-.37.37-.55.92-.55,1.67s.16,1.33.49,1.74.81.62,1.45.62Z"/><path class="cls-2" d="M185,34.64c-.43,0-.78-.14-1.06-.43-.28-.29-.44-.65-.47-1.07-.02-.43.12-.78.4-1.06s.63-.44,1.04-.47c.64-.03,1.05-.13,1.25-.29.19-.16.29-.51.29-1.04v-3.4h-7.68c-.21,1.52-.61,2.88-1.2,4.07-.59,1.19-1.42,2.25-2.5,3.2-.3.27-.67.41-1.1.42-.43,0-.79-.15-1.1-.47-.27-.3-.4-.64-.38-1.02s.19-.7.51-.97c.81-.7,1.44-1.46,1.9-2.26.46-.81.78-1.73.98-2.76s.3-2.23.3-3.59v-4.87c0-1.57.37-2.67,1.1-3.3.73-.63,1.95-.95,3.66-.95h3.59c1.71,0,2.92.32,3.66.95.73.63,1.1,1.73,1.1,3.3v12.13c0,1.37-.33,2.36-.99,2.97-.66.61-1.75.91-3.28.91ZM178.97,24.36h7.47v-2.47h-7.45v2.02c0,.14,0,.29-.02.45ZM179,19.38h7.45v-.59c0-.69-.14-1.17-.43-1.44-.29-.27-.84-.41-1.65-.41h-3.29c-.79,0-1.34.14-1.63.41s-.45.75-.45,1.44v.59Z"/><path class="cls-2" d="M203.87,34.64c-.43,0-.77-.11-1.03-.33s-.39-.54-.39-.95v-6.08h-3.15c-1.23,0-2.22-.13-2.97-.39s-1.29-.72-1.62-1.39-.5-1.61-.5-2.81.17-2.18.51-2.84c.34-.66.89-1.12,1.63-1.37s1.73-.38,2.95-.38h3.15v-3.11c0-.41.13-.72.39-.94.26-.21.6-.32,1.03-.32s.78.11,1.03.32c.24.21.37.53.37.94v3.11h3.2c1.22,0,2.2.13,2.95.38s1.29.71,1.63,1.37c.34.66.51,1.61.51,2.84s-.17,2.14-.53,2.81-.9,1.13-1.64,1.39c-.75.26-1.72.39-2.92.39h-3.2v6.08c0,.41-.12.73-.37.95-.24.22-.59.33-1.03.33ZM199.3,24.77h3.15v-4.16h-3.15c-.58,0-1.04.05-1.37.14-.34.09-.57.28-.71.57-.14.29-.21.75-.21,1.37s.06,1.04.19,1.34c.13.3.36.5.68.59.33.1.8.15,1.41.15ZM205.27,24.77h3.2c.58,0,1.03-.05,1.36-.15.33-.1.56-.3.71-.59s.22-.74.22-1.34c0-.62-.07-1.08-.19-1.37-.13-.29-.36-.48-.7-.57-.33-.09-.8-.14-1.39-.14h-3.2v4.16Z"/><path class="cls-2" d="M230.61,34.82c-.43.01-.79-.08-1.07-.3-.29-.21-.46-.53-.5-.96-.05-.41.06-.77.31-1.06.25-.3.59-.46,1.02-.49.75-.06,1.34-.16,1.78-.31.44-.14.78-.39,1.01-.73s.4-.85.53-1.52c.08-.46.14-1.01.19-1.66.05-.65.1-1.46.13-2.43.03-.97.05-2.18.05-3.61,0-.91-.19-1.56-.56-1.93-.37-.37-1.05-.56-2.04-.56h-9.05c-.47.82-.98,1.63-1.52,2.42s-1.05,1.48-1.54,2.06c-.26.31-.59.49-.99.55-.4.06-.77-.03-1.11-.27-.27-.21-.44-.5-.49-.87-.05-.37.04-.69.29-.96.4-.46.82-1.01,1.28-1.66.46-.65.91-1.34,1.35-2.07.44-.73.84-1.45,1.2-2.15.36-.7.64-1.33.83-1.9.15-.4.4-.66.74-.79.34-.13.7-.13,1.08-.01.37.11.62.34.77.71s.15.72.01,1.07c-.06.2-.14.41-.24.64-.1.23-.21.46-.33.71h7.93c1.29,0,2.31.16,3.06.49s1.28.84,1.6,1.55c.32.71.48,1.64.48,2.8,0,1.37-.01,2.56-.05,3.55-.03,1-.08,1.87-.14,2.62s-.13,1.43-.21,2.06c-.17,1.29-.49,2.3-.97,3.02-.48.72-1.12,1.22-1.91,1.51s-1.76.45-2.9.48ZM225.06,30.92c-1.39,0-2.36-.28-2.94-.83-.57-.56-.86-1.54-.86-2.96v-2.4c0-.94.12-1.69.37-2.24.24-.55.64-.94,1.2-1.18s1.3-.35,2.23-.35h1.53c1.4,0,2.39.27,2.96.82.57.55.86,1.53.86,2.95v2.4c0,1.42-.29,2.4-.86,2.96-.57.56-1.56.83-2.96.83h-1.53ZM223.9,24.86h3.88v-.16c0-.61-.1-1-.31-1.18-.21-.17-.6-.26-1.18-.26h-.94c-.56,0-.95.09-1.15.26-.21.18-.31.57-.31,1.18v.16ZM225.36,28.61h.94c.58,0,.97-.09,1.18-.27.21-.18.31-.58.31-1.19v-.16h-3.88v.16c0,.61.1,1,.31,1.19.21.18.59.27,1.15.27Z"/><path class="cls-2" d="M118.08,64.14c-.38,0-.7-.12-.96-.37-.26-.24-.39-.56-.39-.96v-2.4h-1.69c-.38,0-.7-.13-.96-.39-.26-.26-.39-.58-.39-.96s.13-.68.39-.95c.26-.27.58-.4.96-.4h1.69v-4.43c-.66,1.07-1.37,2.12-2.16,3.18-.78,1.05-1.53,1.93-2.25,2.65-.27.27-.61.43-.99.47-.39.04-.73-.09-1.02-.38v3.54c0,.37-.13.68-.39.94-.26.26-.57.39-.94.39s-.68-.13-.94-.39-.39-.57-.39-.94v-10.42c-.15.23-.31.45-.47.67-.16.22-.32.44-.49.65-.21.29-.51.46-.88.5-.37.05-.71-.05-1.02-.3-.26-.21-.41-.49-.46-.83-.05-.34.03-.64.23-.9.59-.73,1.18-1.58,1.77-2.56.59-.97,1.13-1.96,1.62-2.96.49-1,.89-1.91,1.2-2.73.15-.4.39-.66.72-.79.33-.13.67-.13,1.04-.01.33.12.57.33.72.63.14.3.15.64.01,1.02-.18.5-.39,1.02-.62,1.54s-.47,1.05-.73,1.59v9.5c.44-.44.91-.97,1.42-1.58.5-.61,1.01-1.26,1.53-1.95.52-.69,1-1.37,1.45-2.03.45-.66.83-1.26,1.15-1.79h-3.66c-.34,0-.63-.12-.88-.37-.25-.24-.38-.54-.38-.89s.13-.65.38-.89c.25-.24.54-.37.88-.37h4.52v-3.34c0-.4.13-.72.39-.96.26-.24.58-.37.96-.37s.68.12.94.37c.26.24.39.56.39.96v3.34h4.91c.35,0,.65.12.9.37.25.24.38.54.38.89s-.13.65-.38.89c-.25.24-.55.37-.9.37h-4.14c.32.53.71,1.12,1.18,1.76.46.64.96,1.29,1.47,1.94.52.66,1.04,1.28,1.56,1.86.53.59,1,1.1,1.43,1.54.26.26.4.58.41.96.02.38-.13.72-.43,1.01-.29.27-.64.42-1.04.42-.4,0-.74-.13-1.02-.42-.7-.73-1.44-1.61-2.22-2.65-.78-1.04-1.49-2.06-2.12-3.08v4.39h1.71c.37,0,.68.13.95.4.27.27.4.58.4.95s-.13.7-.4.96c-.27.26-.58.39-.95.39h-1.71v2.4c0,.4-.13.72-.39.96-.26.24-.57.37-.94.37Z"/><path class="cls-2" d="M129.53,61.19c-.21.02-.4-.05-.56-.21-.16-.15-.23-.33-.22-.55.02-.24.02-.55.01-.91,0-.37-.01-.73-.01-1.1s0-.66-.02-.89c-.02-.21.05-.39.19-.54.14-.14.32-.22.51-.24.23-.03.42.02.57.16.15.14.24.31.25.53.02.23.03.53.03.9s.02.75.03,1.12c.01.37.02.68.02.92,0,.23-.07.42-.22.56-.15.14-.35.22-.61.24ZM134.08,63.84c-.37,0-.66-.1-.89-.3-.23-.2-.36-.44-.39-.73-.03-.32.03-.6.19-.84.16-.24.41-.37.74-.39.61-.05,1.04-.13,1.28-.25s.4-.42.48-.89c.03-.14.05-.28.07-.43s.03-.31.05-.48c-.03.03-.09.06-.18.09-.15.05-.31.03-.47-.05-.16-.08-.25-.2-.29-.37-.05-.3-.12-.69-.23-1.17s-.2-.85-.27-1.14c-.05-.15-.03-.3.06-.43.08-.14.2-.23.35-.27.17-.05.32-.03.46.06.14.08.23.21.27.38.06.18.13.42.19.7.07.28.13.56.19.83.02-.26.03-.51.03-.77,0-.25.01-.48.01-.67,0-.37-.06-.62-.18-.77-.12-.14-.38-.22-.78-.22h-2.47c-.99,0-1.68-.18-2.08-.54-.4-.36-.59-.98-.59-1.86v-7.11c0-.96.21-1.63.63-2.02.42-.39,1.13-.58,2.14-.58h4.82c.29,0,.52.1.69.31s.25.44.25.7-.08.49-.25.7-.4.31-.69.31h-1.94v1.35h1.26c.3,0,.55.1.73.29.18.19.27.42.27.7l-.02.07c.47-.32.97-.7,1.48-1.15.52-.45,1.02-.92,1.51-1.41s.91-.94,1.28-1.35c.58-.66,1.16-.98,1.74-.98s1.2.3,1.87.89c.4.35.85.73,1.36,1.13.51.4,1.04.8,1.59,1.18.55.38,1.07.72,1.55,1,.3.17.49.41.57.73.08.32.03.63-.14.94-.15.29-.4.49-.75.61-.35.11-.69.07-1.01-.13-.32-.2-.65-.42-.98-.66.17.2.25.44.25.73s-.09.54-.27.75c-.18.21-.44.32-.78.32h-1.76v1.33h1.14c.78,0,1.38.08,1.8.25.43.17.73.46.9.88.17.42.26,1,.26,1.75s-.09,1.31-.26,1.72c-.18.42-.48.71-.9.88-.43.17-1.03.25-1.8.25h-.69c.4.84.98,1.57,1.75,2.19.77.62,1.62,1.16,2.55,1.6.3.14.5.36.58.67.08.31.05.61-.1.9-.17.33-.43.55-.78.65-.35.1-.7.06-1.05-.1-.79-.41-1.58-.94-2.38-1.59-.79-.65-1.45-1.41-1.99-2.3-.5.88-1.15,1.65-1.95,2.3-.8.65-1.67,1.21-2.62,1.68-.33.15-.67.18-1.02.08-.34-.1-.58-.29-.72-.58-.14-.32-.16-.63-.06-.94.1-.3.29-.52.58-.64,1.04-.46,1.9-1.01,2.59-1.65.69-.64,1.18-1.4,1.47-2.28h-.73c-.76,0-1.36-.08-1.79-.25-.43-.17-.74-.46-.91-.88s-.26-.99-.26-1.72.09-1.33.26-1.75.48-.71.91-.88c.43-.17,1.03-.25,1.79-.25h1v-1.33h-1.8c-.33,0-.6-.11-.79-.32-.19-.21-.29-.46-.29-.75,0-.09.02-.2.05-.32-.15.11-.29.21-.42.32s-.26.21-.38.3c-.29.2-.6.27-.93.23-.33-.05-.58-.2-.77-.46-.18-.23-.26-.5-.23-.8-.15.09-.34.14-.55.14h-1.26v1.33h1.26c.3,0,.55.1.73.29.18.19.27.42.27.7s-.09.51-.27.71c-.18.2-.43.3-.73.3h-1.26v1.51h.23c.87,0,1.5.19,1.88.56.39.37.57,1,.56,1.88-.02.79-.05,1.64-.11,2.56-.06.91-.15,1.71-.25,2.4-.14.94-.49,1.62-1.05,2.02-.56.4-1.39.61-2.47.63ZM131.73,60.62c-.2.03-.38-.01-.54-.12-.16-.11-.25-.27-.26-.47,0-.21-.02-.48-.05-.81-.03-.33-.06-.65-.09-.97-.03-.32-.06-.58-.09-.78-.02-.18.03-.35.14-.5.11-.15.25-.24.43-.25.18-.03.35.01.5.13s.24.26.25.45c.03.2.06.46.1.78.04.32.08.64.11.96.04.32.06.59.08.8.05.46-.15.72-.59.8ZM131.8,46.98h1.46v-1.35h-.37c-.43,0-.72.07-.87.22-.15.14-.23.42-.23.81v.32ZM131.8,50.29h1.46v-1.33h-1.46v1.33ZM132.94,53.79h.32v-1.51h-1.46v.57c0,.37.07.61.22.74.14.13.45.19.92.19ZM133.65,60.16c-.18.03-.35,0-.49-.08-.15-.08-.23-.23-.26-.45-.05-.3-.11-.7-.19-1.2-.08-.49-.16-.89-.22-1.18-.03-.21,0-.39.1-.53.1-.14.22-.22.38-.25.18-.03.35,0,.49.08.14.08.24.23.29.45.05.2.1.45.15.74.05.3.11.59.16.88.05.29.09.53.13.73.03.18,0,.35-.1.51s-.24.25-.42.29ZM147.29,48.6c-.55-.41-1.09-.84-1.63-1.29-.54-.45-.97-.84-1.29-1.18-.24-.24-.46-.36-.65-.35s-.4.14-.63.4c-.29.34-.65.71-1.08,1.12s-.87.81-1.31,1.21h6.12c.2,0,.36.03.48.09ZM142.12,55.68h.53v-1.71h-.53c-.52,0-.85.05-.99.15-.15.1-.22.34-.22.72s.07.62.22.71c.14.09.48.14.99.14ZM145.05,55.68h.66c.52,0,.85-.05.99-.14.14-.09.22-.33.22-.71s-.07-.62-.22-.72-.48-.15-.99-.15h-.66v1.71Z"/><path class="cls-2" d="M154.55,55.23c-.37,0-.67-.12-.93-.37-.25-.24-.38-.56-.38-.96v-.96c0-1.14.25-1.97.77-2.49.51-.52,1.46-.81,2.84-.87l-.02-.07c-.06-.09-.15-.24-.26-.45-.11-.21-.23-.42-.34-.63-.11-.21-.2-.37-.26-.46-.15-.26-.19-.54-.11-.86.08-.31.26-.54.55-.7h-.78c-.38,0-.69-.11-.94-.33-.24-.22-.37-.52-.37-.9-.02-.37.11-.65.38-.86.27-.21.61-.3,1.02-.29,1.1.01,2.26,0,3.5-.06,1.23-.05,2.47-.13,3.7-.23,1.23-.1,2.41-.22,3.54-.38,1.13-.15,2.12-.32,2.99-.5.44-.09.81-.06,1.1.1s.47.39.55.7c.12.4.08.73-.14,1.01-.21.27-.47.45-.78.53-.2.03-.4.06-.59.1-.2.04-.4.07-.62.1l.02.02c.32.12.54.34.66.65.12.31.11.64-.05.99-.11.24-.29.61-.54,1.1s-.49.95-.72,1.39h.69c1.07,0,1.9.1,2.5.3.6.2,1.03.53,1.28,1,.25.47.38,1.11.38,1.92v1.1c0,.4-.13.72-.39.96-.26.24-.57.37-.94.37s-.68-.12-.94-.37c-.26-.24-.39-.56-.39-.96v-1.03c0-.44-.11-.74-.32-.9-.21-.16-.63-.24-1.26-.24h-11.51c-.62,0-1.04.08-1.26.24-.21.16-.32.46-.32.9v1.03c0,.4-.13.72-.39.96-.26.24-.57.37-.94.37ZM155.03,63.98c-.49.06-.88,0-1.19-.21-.31-.2-.48-.5-.53-.91-.05-.4.06-.73.32-.99.26-.27.62-.42,1.07-.47,1.26-.12,2.44-.32,3.52-.61,1.08-.28,2.09-.64,3.02-1.06-.56-.58-1.07-1.21-1.52-1.91-.45-.69-.84-1.45-1.18-2.27h-.94c-.31,0-.57-.11-.79-.34-.22-.23-.33-.5-.33-.82s.11-.57.33-.8c.22-.23.48-.34.79-.34h7.72c1.2,0,2.09.23,2.67.7.58.46.86,1.04.83,1.74-.02.69-.34,1.4-.95,2.11-.3.37-.63.71-.97,1.04-.34.33-.69.64-1.04.95,1.61.79,3.66,1.26,6.15,1.42.46.02.81.16,1.07.45.26.28.37.62.34,1.02-.09.88-.66,1.29-1.69,1.21-3.37-.18-6.15-.97-8.36-2.38-1.11.62-2.36,1.15-3.75,1.57-1.39.42-2.92.73-4.61.92ZM158.96,49.58h2.9s-.05-.11-.11-.21c-.05-.11-.12-.27-.23-.5-.11-.23-.21-.46-.32-.69-.11-.23-.18-.4-.23-.5-.11-.26-.13-.52-.07-.79.06-.27.21-.48.43-.63-.61.03-1.21.06-1.82.08-.6.02-1.2.05-1.79.08.12.06.24.17.37.34.06.09.15.25.27.49.12.24.25.46.38.68.13.22.21.36.24.42.24.44.24.85-.02,1.21ZM163.62,58.31c.67-.49,1.29-1.05,1.85-1.69.27-.3.37-.56.27-.76-.09-.21-.38-.31-.87-.31h-3.5c.59,1.08,1.34,2,2.24,2.76ZM163.97,49.58h1.76c.15-.3.33-.69.53-1.15.2-.46.39-.92.58-1.36.19-.44.32-.77.4-.98.03-.09.07-.17.13-.24.05-.07.11-.13.17-.19-.72.11-1.47.2-2.27.27-.8.08-1.62.15-2.46.23.2.09.35.25.46.48.05.09.13.26.24.51.11.25.23.5.34.74.11.24.19.4.22.48.2.47.17.88-.09,1.21Z"/><path class="cls-2" d="M181.23,64.02c-.38,0-.7-.12-.97-.37-.27-.24-.4-.57-.4-.98v-10.55c-.5.64-1,1.23-1.51,1.78-.24.27-.55.42-.92.45-.37.02-.7-.09-.97-.33-.26-.24-.4-.53-.42-.87s.08-.62.31-.87c.72-.78,1.42-1.66,2.12-2.65.7-.99,1.34-2,1.92-3.04.58-1.04,1.04-2,1.37-2.9.15-.35.39-.59.71-.72.32-.13.66-.13,1.01-.01.33.11.58.32.73.64.15.32.15.66,0,1.03-.2.53-.43,1.09-.71,1.66-.27.57-.58,1.15-.91,1.72v14.67c0,.41-.13.74-.4.98-.27.24-.58.37-.95.37ZM190.28,63.93c-.46,0-.82-.13-1.1-.4-.27-.27-.43-.61-.46-1.04-.01-.38.1-.71.34-.99.24-.28.59-.44,1.03-.47.67-.04,1.09-.15,1.27-.31.18-.16.26-.49.26-.99v-8.98h-7.1c-.38,0-.69-.13-.93-.38s-.35-.55-.35-.9.12-.65.35-.9.54-.38.93-.38h7.1v-3.86c0-.43.13-.76.4-1,.27-.24.59-.37.97-.37s.7.12.97.37c.27.24.4.58.4,1v3.86h2.03c.4,0,.71.13.94.38s.34.55.34.9-.11.65-.34.9-.54.38-.94.38h-2.03v9.44c0,.94-.13,1.69-.38,2.24-.25.55-.67.94-1.27,1.17-.59.23-1.41.34-2.44.34ZM189.29,57.65c-.37.24-.73.33-1.11.25-.37-.08-.67-.28-.88-.62-.15-.26-.36-.57-.63-.94-.27-.37-.54-.73-.81-1.1-.27-.37-.51-.66-.71-.89-.21-.27-.29-.59-.23-.95.06-.36.24-.64.53-.86.3-.21.64-.32.99-.31.36,0,.67.16.92.47.2.23.44.53.73.9.29.37.57.75.86,1.12.28.37.5.68.65.93.24.35.33.72.25,1.1s-.27.68-.57.89Z"/><path class="cls-2" d="M201.75,61.65c-.33.17-.69.19-1.06.06-.37-.13-.64-.37-.81-.72-.17-.35-.19-.71-.06-1.07.13-.37.36-.63.7-.8,2.18-1.05,4.12-2.32,5.81-3.8,1.7-1.48,3.08-3.1,4.15-4.83.67-1.1.3-1.64-1.1-1.64h-6.24c-.38,0-.71-.14-.98-.42-.27-.28-.41-.61-.41-.99s.14-.73.41-1.01c.27-.27.6-.41.98-.41h6.33c1.37,0,2.42.25,3.15.74.73.5,1.13,1.17,1.2,2.02s-.22,1.83-.86,2.95c-.33.61-.74,1.22-1.21,1.83.7.58,1.42,1.21,2.16,1.91.74.69,1.43,1.36,2.08,2.01.65.65,1.19,1.2,1.63,1.66.26.27.39.61.39,1.01s-.15.73-.43,1c-.27.27-.61.41-1,.4-.4,0-.73-.15-1.01-.42-.41-.43-.93-.96-1.55-1.61-.62-.65-1.29-1.32-1.99-2.01s-1.38-1.32-2.03-1.88c-1.16,1.2-2.45,2.33-3.87,3.39-1.42,1.06-2.88,1.95-4.38,2.66Z"/><path class="cls-2" d="M224.69,63.09c-.37.15-.73.16-1.09.02-.36-.14-.62-.39-.79-.75-.15-.35-.16-.71-.01-1.07.14-.37.39-.62.74-.78,3.14-1.36,5.72-3.08,7.74-5.16-.33-.33-.65-.64-.96-.91-.3-.27-.56-.5-.78-.66-.29-.26-.46-.58-.51-.96s.04-.72.29-1.01c.26-.3.58-.48.97-.53s.73.06,1.02.32c.26.2.54.43.83.7.3.27.61.55.95.86.27-.4.53-.8.78-1.21.24-.41.47-.83.69-1.26.24-.5.29-.88.15-1.13-.15-.25-.51-.38-1.11-.38h-3.11c-.76,1.02-1.62,2-2.56,2.94-.95.94-1.84,1.72-2.7,2.34-.32.23-.67.31-1.06.24-.39-.07-.69-.26-.9-.58-.23-.32-.31-.67-.24-1.05.07-.38.26-.69.58-.91.88-.64,1.73-1.36,2.55-2.17.82-.81,1.55-1.66,2.21-2.55.65-.89,1.18-1.75,1.58-2.59.17-.35.43-.6.79-.74.36-.14.71-.14,1.06.01.35.15.6.42.74.79s.13.73-.03,1.08c-.03.08-.06.16-.1.24-.04.08-.08.16-.13.24h1.76c1.17,0,2.08.22,2.71.66.63.44.99,1.06,1.06,1.84s-.14,1.68-.64,2.68c-.56,1.19-1.26,2.32-2.1,3.4.35.33.67.66.96.96s.53.58.73.82c.26.3.37.66.32,1.05-.05.4-.23.72-.55.98-.3.24-.65.34-1.04.29-.39-.05-.71-.22-.97-.51-.15-.18-.34-.4-.57-.64-.23-.24-.47-.5-.73-.75-2.38,2.47-5.22,4.42-8.52,5.85Z"/><path class="cls-2" d="M243.98,54.93c-.38,0-.71-.14-.99-.42-.28-.28-.42-.61-.42-.99s.14-.73.42-1.01c.28-.27.61-.41.99-.41h14.23c.4,0,.73.14,1,.41s.41.61.41,1.01-.14.71-.41.99c-.27.28-.61.42-1,.42h-14.23Z"/><path class="cls-2" d="M268.85,63.09c-.38,0-.71-.14-.98-.41s-.41-.6-.41-.98v-15.79c0-.4.14-.73.41-.99s.6-.4.98-.4.73.13,1,.4c.27.27.41.6.41.99v5.51c.2-.3.47-.51.82-.61.35-.1.69-.07,1.03.1.9.47,1.82,1.01,2.75,1.62.94.61,1.75,1.2,2.43,1.78.3.24.48.57.51.97s-.07.76-.33,1.06c-.24.29-.56.45-.96.49-.4.04-.75-.07-1.05-.31-.43-.33-.92-.69-1.47-1.07-.56-.38-1.11-.75-1.67-1.11-.56-.36-1.06-.67-1.52-.93-.24-.14-.43-.3-.55-.5v8.77c0,.38-.14.71-.41.98-.27.27-.61.41-1,.41Z"/><path class="cls-2" d="M283.8,62.42c-.47,0-.88-.17-1.21-.5-.34-.33-.5-.74-.5-1.21s.17-.9.5-1.23c.33-.33.74-.5,1.21-.5s.9.17,1.25.5c.34.33.51.75.51,1.23s-.17.88-.51,1.21c-.34.33-.76.5-1.25.5ZM283.82,57.51c-.66,0-1-.45-1.05-1.35l-.3-8.71c-.03-.91.41-1.37,1.33-1.37s1.39.46,1.35,1.37l-.3,8.71c-.03.9-.37,1.35-1.03,1.35Z"/><path class="cls-2" d="M291.07,62.42c-.47,0-.88-.17-1.21-.5-.34-.33-.5-.74-.5-1.21s.17-.9.5-1.23c.33-.33.74-.5,1.21-.5s.9.17,1.25.5c.34.33.51.75.51,1.23s-.17.88-.51,1.21c-.34.33-.76.5-1.25.5ZM291.09,57.51c-.66,0-1-.45-1.05-1.35l-.3-8.71c-.03-.91.41-1.37,1.33-1.37s1.39.46,1.35,1.37l-.3,8.71c-.03.9-.37,1.35-1.03,1.35Z"/><path class="cls-2" d="M92.63,86.83c-.21,0-.39-.07-.54-.21-.15-.14-.22-.32-.22-.55v-2.43h-2.13c-.18,0-.34-.07-.48-.2-.14-.13-.2-.29-.2-.48s.07-.34.2-.47c.14-.13.29-.2.48-.2h2.13v-1.39h-1.7c-.17,0-.33-.06-.45-.19-.13-.13-.19-.28-.19-.45s.06-.33.19-.45c.13-.13.28-.19.45-.19h1.7v-1.33h-1.94c-.14,0-.27-.04-.38-.12-.11-.08-.19-.19-.24-.31-.03.12-.1.23-.21.32-.1.09-.23.14-.37.14h-3.93c-.17,0-.31-.06-.43-.18-.12-.12-.18-.27-.18-.43s.06-.31.18-.43c.12-.12.26-.18.43-.18h3.93c.13,0,.25.04.35.12.1.08.17.18.21.3.03-.15.11-.27.22-.36.11-.09.25-.14.41-.14h.96s-.07-.07-.1-.11c-.03-.03-.05-.07-.07-.12-.03-.08-.09-.19-.17-.33s-.16-.29-.24-.45c-.08-.15-.15-.28-.21-.39-.09-.17-.1-.34-.04-.51.06-.17.17-.3.34-.38.17-.09.36-.11.54-.08.19.04.33.14.43.31.06.1.13.24.22.39.08.16.16.31.24.46s.14.28.18.37c.07.16.08.31.04.45-.04.14-.13.26-.25.36h1.03c.05-.11.12-.25.2-.43s.17-.37.26-.57c.09-.2.18-.39.26-.57s.14-.32.18-.41c.08-.19.21-.32.4-.39.19-.07.38-.05.57.03.19.08.32.21.39.38s.06.35-.03.54c-.07.16-.18.37-.32.65-.14.27-.28.53-.4.77h1.11c.17,0,.33.06.45.19.13.13.19.28.19.45s-.06.33-.19.45c-.13.13-.28.19-.45.19h-2.09v1.33h1.7c.17,0,.33.06.45.19.13.13.19.28.19.45s-.06.33-.19.45c-.13.13-.28.19-.45.19h-1.7v1.39h2.34c.18,0,.34.07.47.2.13.13.2.29.2.47s-.07.35-.2.48c-.13.13-.29.2-.47.2h-2.34v2.43c0,.23-.07.41-.22.55-.14.14-.32.21-.53.21ZM86.83,86.49c-.52,0-.93-.06-1.23-.18-.3-.12-.51-.32-.63-.6-.12-.28-.18-.67-.18-1.16s.06-.9.18-1.18c.12-.28.33-.47.63-.59.3-.11.71-.17,1.23-.17s.93.06,1.23.17c.3.11.51.31.63.59.13.28.19.67.19,1.18s-.06.87-.19,1.16c-.13.28-.34.48-.63.6-.3.12-.71.18-1.23.18ZM85.44,80.16c-.17,0-.31-.06-.43-.18s-.18-.27-.18-.43.06-.31.18-.43c.12-.12.26-.18.43-.18h2.72c.17,0,.31.06.43.18.12.12.18.27.18.43s-.06.31-.18.43c-.12.12-.26.18-.43.18h-2.72ZM85.44,82c-.17,0-.31-.06-.43-.18s-.18-.27-.18-.43.06-.31.18-.43.26-.18.43-.18h2.72c.17,0,.31.06.43.18.12.12.18.27.18.43s-.06.31-.18.43c-.12.12-.26.18-.43.18h-2.72ZM85.47,76.46c-.17,0-.31-.06-.43-.19-.12-.13-.18-.27-.18-.44,0-.17.06-.32.18-.45s.27-.18.43-.18h2.67c.17,0,.32.06.44.18s.18.27.18.45-.06.31-.18.44c-.12.13-.27.19-.44.19h-2.67ZM86.83,85.27c.27,0,.45-.05.54-.14.09-.1.13-.29.13-.58s-.04-.47-.13-.57c-.09-.1-.27-.15-.54-.15s-.44.05-.53.15c-.09.1-.14.29-.14.57s.05.48.14.58c.09.1.27.14.53.14Z"/><path class="cls-2" d="M102.88,86.27c-1.05,0-1.87-.26-2.47-.78-.6-.52-.9-1.35-.9-2.51v-6.98c0-.22.08-.4.23-.56.15-.15.34-.23.56-.23s.4.08.56.23c.15.15.23.34.23.56v6.98c0,.65.15,1.1.44,1.35.29.25.74.38,1.35.38.54,0,1.05-.14,1.52-.43s.86-.75,1.16-1.39c.1-.2.25-.34.46-.41.21-.07.41-.06.6.04.2.09.33.24.4.45s.05.41-.03.62c-.38.86-.94,1.53-1.68,1.99s-1.55.69-2.43.69Z"/><path class="cls-2" d="M115.67,86.52c-.17.12-.37.16-.59.12-.22-.04-.39-.14-.51-.31-.3-.43-.63-.87-1-1.33-.37-.46-.74-.91-1.11-1.33-.37-.42-.7-.78-.99-1.08-.52-.51-.86-.98-1.03-1.43-.17-.44-.17-.89.01-1.33.18-.44.55-.91,1.09-1.42.18-.17.4-.38.66-.63.26-.25.53-.52.82-.81s.57-.58.84-.86.52-.54.73-.77c.15-.16.33-.24.56-.24.22,0,.41.07.57.22.16.14.24.32.24.54s-.07.41-.22.57c-.31.33-.64.68-1.01,1.05-.37.37-.73.72-1.08,1.06-.35.34-.65.62-.9.84-.34.31-.56.58-.67.8-.11.22-.11.44,0,.66.11.22.32.49.62.81.3.31.63.67,1.01,1.1.38.43.76.87,1.15,1.33.38.46.72.9,1.01,1.32.13.17.18.36.14.58-.04.22-.15.39-.32.52Z"/><path class="cls-2" d="M120.8,86.23c-.22.04-.41,0-.59-.13-.17-.12-.28-.29-.33-.5-.05-.29-.09-.68-.12-1.18-.03-.5-.04-1.06-.05-1.68,0-.62,0-1.26,0-1.93.01-.67.04-1.32.07-1.95.03-.63.08-1.21.14-1.73.06-.52.12-.94.2-1.26.05-.21.17-.37.35-.48.18-.11.38-.14.59-.09.21.05.37.17.48.35.11.18.14.38.09.59-.08.32-.14.73-.2,1.22-.05.49-.1,1.02-.13,1.6-.04.58-.06,1.18-.07,1.79-.01.61-.02,1.2,0,1.77s.03,1.09.06,1.56c.03.47.07.85.12,1.14.04.21,0,.4-.12.58s-.29.28-.5.33ZM125.15,86.22c-.7,0-1.26-.17-1.68-.52s-.63-.84-.63-1.49.21-1.11.63-1.47c.42-.36,1.01-.54,1.75-.54.23,0,.46.01.69.04,0-.41-.02-.86-.03-1.34s-.03-.98-.05-1.49c-.46.03-.91.04-1.34.05s-.8,0-1.12,0c-.22,0-.4-.09-.54-.24-.14-.15-.21-.34-.2-.56.02-.21.1-.39.26-.53.15-.14.33-.21.54-.2.31,0,.67.01,1.08,0,.41,0,.85-.02,1.3-.05,0-.33-.01-.65-.01-.96v-.86c0-.22.07-.4.22-.56.15-.15.33-.23.55-.23s.41.08.56.23c.15.15.22.34.22.56,0,.27,0,.55,0,.84s0,.58,0,.88c.38-.04.74-.07,1.05-.1.32-.04.59-.07.81-.11.21-.04.4,0,.58.12.17.13.28.29.31.5.04.21-.01.4-.14.58-.13.17-.29.28-.5.3-.24.03-.55.07-.91.11-.36.04-.75.08-1.17.11.02.61.03,1.2.05,1.77s.03,1.07.04,1.5c.48.16.93.34,1.35.56.42.22.79.45,1.11.68.17.13.28.3.31.52.03.21,0,.41-.13.58s-.29.28-.5.33-.41,0-.58-.13c-.22-.17-.46-.33-.72-.48s-.53-.3-.81-.42c-.09,1.33-.87,2-2.36,2ZM125.15,84.74c.54,0,.81-.26.81-.77,0-.03,0-.06,0-.11,0-.04,0-.09,0-.14-.26-.05-.53-.08-.8-.08s-.47.05-.6.16c-.13.11-.19.24-.19.41s.06.3.18.39c.12.1.32.14.6.14Z"/><path class="cls-2" d="M133.23,85.71c-.52,0-.77-.26-.77-.77v-7.62c0-.51.25-.77.75-.77s.76.26.76.77v6.99h4c.51,0,.77.23.77.69s-.26.71-.77.71h-4.74Z"/><path class="cls-2" d="M141.19,85.71c-.5,0-.75-.26-.75-.77v-7.62c0-.51.25-.77.75-.77s.76.26.76.77v7.62c0,.52-.25.77-.76.77Z"/><path class="cls-2" d="M145.18,85.71c-.5,0-.75-.26-.75-.77v-7.62c0-.51.25-.77.75-.77h.17c.39,0,.7.17.93.51l3.98,5.99v-5.73c0-.25.07-.44.2-.58s.33-.2.57-.2c.51,0,.76.26.76.77v7.62c0,.52-.24.77-.72.77h-.13c-.4,0-.71-.17-.93-.51l-4.07-6.18v5.92c0,.52-.25.77-.76.77Z"/><path class="cls-2" d="M155.04,85.71c-.52,0-.77-.26-.77-.77v-7.62c0-.51.26-.77.77-.77h4.58c.51,0,.77.24.77.71s-.26.69-.77.69h-3.85v2.38h3.44c.51,0,.77.24.77.71s-.26.71-.77.71h-3.44v2.57h3.99c.51,0,.77.23.77.69s-.26.71-.77.71h-4.72Z"/><path class="cls-2" d="M162.06,81.52c-.17-.16-.24-.35-.24-.57,0-.22.1-.42.27-.58.33-.31.67-.69,1.03-1.13.35-.44.68-.89.99-1.35.31-.47.54-.89.72-1.28.1-.22.25-.36.46-.42.21-.06.41-.04.6.05.2.11.33.26.4.45s.05.39-.05.59c-.24.51-.52,1.01-.84,1.51-.32.5-.66.98-1.02,1.43-.36.45-.71.85-1.06,1.21-.17.17-.38.27-.62.3-.24.04-.46-.04-.65-.22ZM172.74,86.32c-.19.13-.41.17-.65.13s-.42-.16-.54-.35c-.09-.13-.18-.27-.28-.42-.1-.15-.21-.3-.33-.47-.39.05-.85.11-1.37.17-.52.06-1.07.12-1.64.19-.58.07-1.15.13-1.71.2-.56.07-1.09.12-1.58.18-.49.05-.91.1-1.25.13-.27.03-.49-.03-.65-.16-.17-.13-.26-.32-.29-.56-.02-.21.04-.39.18-.55s.33-.24.58-.26c.17-.02.36-.03.57-.05.21-.01.43-.03.67-.05.17-.34.37-.73.59-1.18.22-.45.44-.92.66-1.4.22-.48.43-.94.62-1.38.19-.44.35-.81.47-1.13.09-.22.23-.37.43-.46s.41-.09.63-.01c.22.08.37.22.46.42.09.21.09.41,0,.62-.17.38-.37.82-.6,1.32-.24.51-.48,1.03-.75,1.56s-.51,1.03-.75,1.48c.65-.06,1.31-.12,1.97-.19.66-.07,1.25-.12,1.79-.18-.2-.26-.4-.51-.6-.75-.2-.24-.37-.45-.53-.62-.14-.15-.21-.33-.2-.54,0-.21.09-.38.25-.51.17-.14.35-.21.56-.2.21,0,.39.09.54.24.21.22.45.48.71.78.26.3.53.62.8.96.27.34.53.66.77.97.24.31.46.6.64.85.14.2.2.42.16.65-.03.23-.15.42-.35.57ZM172.73,81.39c-.46-.36-.91-.75-1.34-1.18-.43-.43-.81-.88-1.16-1.35-.34-.47-.64-.93-.88-1.39-.1-.2-.2-.35-.28-.45-.08-.1-.19-.17-.31-.2-.13-.03-.31-.05-.54-.05h-.93c-.19,0-.36-.07-.5-.22-.14-.14-.21-.31-.21-.5s.07-.37.21-.51c.14-.14.31-.21.5-.21h.93c.49,0,.88.04,1.17.12.29.08.53.22.73.42.2.2.39.48.6.85.33.58.77,1.18,1.31,1.77s1.14,1.12,1.79,1.58c.2.13.32.31.36.55.04.24-.02.45-.16.64-.16.19-.36.3-.6.32-.24.02-.47-.04-.67-.19Z"/><path class="cls-2" d="M184.39,85.81c-.55-.65-1.06-1.55-1.52-2.7-.46-1.14-.81-2.58-1.03-4.32h-5.5c-.22,0-.4-.07-.53-.22-.14-.14-.2-.32-.2-.53s.07-.37.2-.52c.13-.14.31-.22.53-.22h5.34c-.02-.3-.03-.6-.05-.92s-.03-.63-.05-.96c0-.24.08-.44.23-.58.15-.14.34-.22.56-.22s.4.07.56.2c.15.14.23.33.23.58,0,.32,0,.64,0,.96.01.31.03.62.05.93h3.62c.23,0,.41.07.54.22.13.14.2.32.2.52s-.07.39-.2.53c-.13.14-.31.22-.54.22h-3.47c.19,1.4.48,2.6.87,3.61.39,1.01.82,1.76,1.3,2.26.13.14.24.2.33.18s.18-.11.26-.27c.04-.1.1-.21.16-.33.06-.13.11-.23.14-.32.09-.2.22-.33.41-.4s.38-.06.57.02c.2.09.34.22.41.4s.08.36.02.54c-.06.18-.13.36-.2.52-.07.17-.16.35-.25.55-.24.49-.52.82-.86.99-.34.17-.7.19-1.07.07-.37-.13-.73-.39-1.07-.79ZM176.6,86.31c-.24.04-.45,0-.6-.12-.16-.12-.26-.29-.3-.52-.04-.23.01-.41.14-.56.13-.14.31-.23.54-.27.06,0,.26-.04.59-.09.33-.05.72-.11,1.18-.18v-2.83h-1.57c-.22,0-.39-.07-.52-.21-.13-.14-.19-.31-.19-.5s.06-.37.19-.5c.13-.13.3-.2.52-.2h4.55c.22,0,.39.07.51.2.12.14.18.3.18.5s-.06.36-.18.5c-.12.14-.29.21-.51.21h-1.36v2.57c.46-.07.87-.13,1.22-.2.35-.06.57-.1.66-.1.23-.04.41-.02.56.08.14.1.23.25.27.46.04.21.02.39-.08.53s-.25.24-.45.28c-.08.02-.25.05-.52.1s-.6.11-.98.18c-.38.07-.79.14-1.2.22s-.82.15-1.2.22c-.38.07-.7.13-.96.17-.26.04-.42.07-.48.08ZM186.02,77.13c-.16.13-.34.19-.54.17s-.38-.1-.53-.25c-.06-.07-.15-.16-.26-.27-.11-.11-.23-.22-.34-.32s-.21-.19-.28-.25c-.14-.12-.21-.28-.2-.47,0-.19.08-.36.22-.5.14-.15.3-.23.49-.25s.36.04.52.18c.08.06.18.15.31.27.13.12.26.23.39.35.13.11.22.21.28.27.15.15.22.33.2.53-.01.21-.1.38-.26.53Z"/><path class="cls-2" d="M192.37,86.25c-.17.14-.37.2-.59.17-.22-.03-.4-.13-.54-.3-.14-.17-.2-.37-.17-.6s.13-.4.3-.54c.59-.46,1.09-1.01,1.48-1.63.39-.62.67-1.31.82-2.05s.16-1.51.02-2.3c-.04-.23,0-.43.13-.61s.29-.29.51-.32c.23-.04.43,0,.61.12s.29.3.32.52c.02.06.03.13.03.2,0,.07.01.14.02.21.79-.04,1.38-.11,1.77-.2s.66-.2.8-.31c.13-.12.2-.24.2-.36,0-.18-.06-.33-.17-.43-.11-.1-.36-.15-.73-.15h-6.92c-.22,0-.41-.08-.57-.24s-.24-.34-.24-.56.08-.42.24-.57c.16-.15.35-.23.57-.23h6.92c1.73,0,2.59.7,2.59,2.11,0,.52-.15.96-.45,1.3s-.78.61-1.43.79c-.65.18-1.5.31-2.56.37-.08,1.13-.38,2.19-.89,3.15-.52.97-1.21,1.79-2.08,2.46Z"/><path class="cls-2" d="M202.86,86.12c-.17-.15-.25-.33-.26-.56s.06-.42.21-.58c.68-.73,1.26-1.56,1.75-2.48.48-.92.86-1.92,1.13-2.99-.49.03-.94.05-1.37.07-.42.02-.7.04-.83.04-.22,0-.41-.06-.58-.22-.17-.15-.25-.34-.26-.56,0-.23.06-.42.21-.59.15-.17.34-.25.56-.26.1,0,.28-.02.55-.03s.59-.02.95-.03c.36-.01.73-.03,1.09-.05.1-.65.17-1.33.2-2.03,0-.23.1-.42.26-.57s.36-.22.58-.2c.23,0,.42.09.57.26.15.16.22.36.2.58,0,.32-.03.64-.07.96-.04.31-.07.63-.12.96l.38-.03c.95-.04,1.68.08,2.2.35s.85.72,1,1.35c.15.63.14,1.47-.03,2.53-.14.89-.34,1.61-.6,2.17-.26.56-.57.98-.93,1.26-.36.28-.77.46-1.22.52-.45.07-.95.05-1.48-.03-.22-.03-.39-.14-.52-.33-.13-.18-.18-.38-.14-.6.04-.23.16-.4.34-.53.18-.13.38-.17.6-.12.29.05.55.07.79.04.24-.03.45-.12.65-.29.2-.17.37-.44.52-.82.15-.38.29-.9.4-1.56.12-.69.16-1.21.1-1.55s-.21-.57-.46-.69c-.26-.11-.64-.16-1.16-.14-.13,0-.38.01-.75.04-.31,1.32-.76,2.55-1.33,3.7-.58,1.15-1.24,2.14-1.99,2.96-.15.17-.33.25-.56.25-.22,0-.42-.07-.58-.22Z"/><path class="cls-2" d="M218.08,86.36c-.2.09-.41.1-.62.05s-.37-.19-.47-.39c-.11-.2-.12-.41-.06-.63.07-.22.2-.37.4-.46,1.27-.58,2.25-1.22,2.92-1.94.67-.72,1.13-1.52,1.37-2.42.09-.3.14-.55.15-.74s-.02-.35-.08-.48c-.07-.1-.2-.19-.38-.25-.18-.07-.45-.11-.81-.14-.36-.03-.84-.05-1.44-.05s-1.1.01-1.45.03-.6.06-.77.12c-.17.06-.29.14-.38.24-.09.11-.13.3-.12.55,0,.25.05.65.14,1.19.04.22,0,.42-.13.6-.13.18-.31.29-.54.33-.22.04-.42-.01-.59-.14-.18-.13-.29-.31-.33-.52-.09-.56-.14-1.03-.17-1.41-.03-.38,0-.7.07-.97.07-.27.2-.51.39-.73.18-.21.39-.37.63-.48.24-.11.56-.2.96-.25s.92-.09,1.56-.1v-1.52c0-.23.08-.42.24-.58s.34-.24.56-.24.42.08.58.24.24.35.24.58v1.52c.61.02,1.12.06,1.52.12.4.06.73.16.99.29.26.13.47.31.65.54.25.34.37.72.35,1.15s-.11.95-.28,1.56c-.18.67-.48,1.33-.88,1.99s-.94,1.27-1.63,1.84c-.69.57-1.55,1.08-2.58,1.52Z"/><path class="cls-2" d="M229.03,80.04c-.33-.28-.7-.57-1.11-.87-.41-.3-.78-.55-1.11-.74-.19-.12-.31-.29-.37-.5-.05-.21-.02-.42.09-.61.12-.19.29-.32.5-.37.21-.06.42-.02.61.1.24.15.5.33.81.54.3.21.59.43.88.63.28.21.52.39.7.54.17.14.28.32.31.54.03.22-.02.42-.16.59-.14.17-.32.28-.54.31-.22.03-.42-.02-.6-.16ZM227.9,85.19c-.21.08-.42.07-.62-.03-.21-.1-.35-.25-.43-.46-.08-.21-.07-.42.03-.62s.25-.35.46-.43c.7-.24,1.4-.54,2.11-.9.71-.36,1.39-.75,2.04-1.17.65-.42,1.24-.86,1.78-1.31.54-.45.97-.88,1.32-1.3.15-.17.33-.27.56-.3.22-.03.42.04.58.18.17.14.27.32.3.54s-.04.42-.18.6c-.36.44-.83.9-1.43,1.39-.59.49-1.26.98-1.99,1.46-.73.48-1.49.92-2.26,1.33s-1.53.75-2.26,1.01Z"/><path class="cls-2" d="M241.19,86.27c-.22,0-.41-.08-.56-.24s-.24-.34-.24-.56v-9.04c0-.23.08-.42.24-.57s.34-.23.56-.23.42.08.58.23.24.34.24.57v3.15c.11-.17.27-.29.47-.35.2-.06.4-.04.59.06.51.27,1.04.58,1.58.93.54.35,1,.69,1.39,1.02.17.14.27.33.29.56.02.23-.04.43-.19.61-.14.17-.32.26-.55.28-.23.02-.43-.04-.6-.18-.24-.19-.53-.4-.84-.62-.32-.22-.64-.43-.96-.63s-.61-.38-.87-.53c-.14-.08-.24-.17-.31-.29v5.03c0,.22-.08.41-.24.56s-.35.24-.58.24Z"/><path class="cls-2" d="M256.55,86.12c-1.03-.15-1.88-.45-2.55-.9-.67-.45-1.17-.99-1.5-1.63-.33-.64-.49-1.3-.49-1.99s.14-1.35.41-1.96.66-1.13,1.18-1.58c-.52.08-1.08.17-1.67.27-.59.1-1.17.2-1.72.3-.55.1-1.04.19-1.46.27-.22.04-.41-.01-.58-.14-.17-.13-.27-.3-.31-.51-.04-.22.01-.41.14-.58.13-.17.3-.27.52-.31.28-.04.64-.1,1.07-.18.44-.07.92-.16,1.47-.24s1.09-.18,1.66-.27c.57-.1,1.12-.19,1.67-.28.54-.09,1.04-.18,1.5-.25.45-.08.82-.14,1.11-.2.2-.04.39,0,.57.13s.29.28.32.48c.04.21.01.41-.1.59s-.27.29-.48.33c-.61.1-1.15.28-1.61.56-.46.27-.85.61-1.17.99-.32.39-.56.8-.72,1.23-.16.43-.24.86-.24,1.28,0,.85.29,1.53.86,2.05.58.52,1.36.85,2.36.99.21.04.38.14.51.31s.18.37.14.58c-.03.22-.13.39-.3.52-.17.13-.37.18-.58.14ZM258.22,80.77c-.11.1-.25.14-.41.12-.16-.02-.29-.09-.39-.22-.1-.12-.22-.28-.37-.46-.15-.19-.28-.35-.41-.49-.08-.1-.12-.21-.11-.35,0-.14.06-.25.18-.35.1-.1.22-.14.36-.14.14,0,.26.05.37.15.13.11.28.26.45.45.17.18.31.35.42.5.1.12.13.26.11.42s-.09.28-.22.38ZM259.47,79.65c-.11.11-.25.17-.41.16-.16,0-.29-.07-.4-.2-.11-.12-.24-.27-.4-.45-.16-.17-.31-.33-.44-.46-.09-.09-.13-.2-.14-.34,0-.14.05-.26.15-.37.1-.1.21-.15.35-.15.14,0,.27.04.38.12.14.1.3.23.48.4.18.17.34.33.46.48.1.11.15.25.14.4,0,.15-.07.29-.18.4Z"/><path class="cls-2" d="M261.36,80.94c-.18-.04-.31-.13-.39-.28-.08-.15-.1-.32-.07-.49.05-.21.1-.47.16-.78.05-.31.1-.62.14-.94.04-.31.07-.58.09-.8.02-.23.1-.39.26-.5.15-.1.33-.14.54-.1.17.03.31.11.42.24.1.14.15.3.13.5-.03.25-.06.55-.1.88-.04.34-.09.66-.14.97-.05.31-.1.58-.16.8-.04.19-.15.33-.31.42-.16.09-.35.11-.57.07ZM263.69,86.82c-.21,0-.39-.07-.53-.2-.14-.13-.22-.32-.22-.54v-10.69c0-.23.07-.41.22-.54.14-.14.32-.2.53-.2s.38.07.52.2c.14.13.21.32.21.54v1.36s.02,0,.04-.03c.14-.1.29-.14.46-.13.17,0,.29.07.38.2.05.06.12.16.22.28.09.13.19.25.28.38.1.13.17.23.21.31.02-.12.07-.23.14-.32.08-.09.19-.14.33-.14h1.79v-.48h-2.47c-.16,0-.28-.05-.37-.16-.09-.1-.14-.23-.14-.37s.05-.26.14-.37c.09-.11.22-.16.37-.16h2.47v-.46c0-.23.07-.41.22-.54s.33-.2.54-.2.39.07.53.2c.14.13.22.31.22.54v.46h2.67c.16,0,.28.05.37.16.09.11.13.23.13.37s-.04.26-.13.37-.21.16-.37.16h-2.67v.48h1.9c.15,0,.26.05.34.16.08.11.12.22.12.35s-.04.25-.12.35c-.08.1-.19.16-.34.16h-1.9v.52h3.04c.17,0,.29.05.38.16.09.1.13.23.13.38,0,.14-.04.26-.13.37-.09.1-.21.16-.38.16h-7.39c-.17,0-.29-.05-.38-.16-.09-.11-.13-.23-.13-.37,0-.15.04-.27.13-.38.09-.1.21-.16.38-.16h2.85v-.52h-1.79c-.07,0-.13-.02-.19-.05s-.11-.06-.15-.1c0,.22-.09.39-.26.51-.14.1-.3.13-.47.1-.17-.03-.31-.11-.41-.25-.06-.1-.15-.23-.26-.4s-.22-.33-.31-.46v8.4c0,.23-.07.41-.21.54-.14.14-.31.2-.52.2ZM266.86,86.91c-.21,0-.39-.07-.54-.21-.15-.14-.22-.32-.22-.55v-3.98c0-.45.06-.81.18-1.08.12-.27.32-.46.62-.58.29-.12.7-.18,1.22-.18h2.02c.52,0,.93.06,1.22.18s.49.31.61.58c.12.27.18.63.18,1.08v2.88c0,.65-.17,1.12-.5,1.39-.33.28-.82.41-1.45.41-.22,0-.4-.06-.54-.18-.14-.12-.22-.27-.24-.46-.02-.2.03-.38.13-.52.1-.15.26-.24.47-.26.24-.04.41-.08.49-.12.08-.05.12-.18.12-.39v-.33h-3.02v1.56c0,.23-.07.41-.22.55-.15.14-.32.21-.52.21ZM267.61,82h3.02c0-.25-.06-.41-.16-.48-.1-.07-.31-.1-.63-.1h-1.43c-.32,0-.54.03-.63.1-.1.07-.16.22-.16.48ZM267.61,83.58h3.02v-.58h-3.02v.58Z"/><path class="cls-2" d="M278.08,86.86c-.19,0-.36-.07-.5-.2s-.21-.31-.21-.52v-1.69h-1.58c-.17,0-.33-.06-.45-.19-.13-.13-.19-.28-.19-.45s.06-.33.19-.45.28-.19.45-.19h1.58v-.89h-1.75c-.17,0-.33-.06-.45-.19-.13-.13-.19-.28-.19-.45s.06-.33.19-.45c.13-.13.28-.19.45-.19h.69c-.06-.17-.12-.33-.18-.48-.06-.16-.1-.26-.12-.3-.07-.17-.07-.33.01-.48.08-.16.2-.27.37-.33h-.98c-.17,0-.33-.06-.45-.19-.13-.13-.19-.28-.19-.45s.06-.33.19-.45c.13-.13.28-.19.45-.19h1.96v-.83h-1.4c-.17,0-.32-.06-.45-.19-.12-.13-.18-.27-.18-.44s.06-.32.18-.44c.12-.12.27-.18.45-.18h1.4v-.69c0-.22.07-.39.21-.52.14-.13.31-.2.5-.2s.37.07.51.2c.14.13.21.31.21.52v.69h1.35c.17,0,.32.06.45.18.12.12.18.27.18.44s-.06.31-.18.44c-.12.13-.27.19-.45.19h-1.35v.83h1.82c.17,0,.33.06.45.19s.19.28.19.45-.06.32-.19.45c-.13.13-.28.19-.45.19h-.86c.16.06.27.17.35.32.07.15.08.31,0,.46-.02.06-.06.17-.12.33-.07.16-.13.32-.2.48h.62c.17,0,.33.06.45.19.13.13.19.28.19.45s-.06.33-.19.45c-.13.13-.28.19-.45.19h-1.6v.89h1.44c.17,0,.33.06.45.19s.19.28.19.45-.06.33-.19.45c-.13.13-.28.19-.45.19h-1.44v1.69c0,.22-.07.39-.21.52s-.31.2-.51.2ZM277.69,80.99h.75c.04-.11.09-.25.15-.42.06-.17.11-.32.16-.47.05-.15.08-.24.1-.29.03-.1.07-.19.14-.26s.15-.12.24-.16h-2.36c.17.07.3.19.38.37.04.08.08.2.14.37s.12.33.18.49c.06.16.1.29.13.37ZM282.07,86.83c-.19,0-.36-.07-.5-.2-.14-.14-.22-.31-.22-.53v-8.89c0-.58.07-1.02.2-1.34.13-.32.38-.54.74-.67s.88-.2,1.56-.2,1.2.06,1.56.17c.36.11.61.31.75.6.13.29.2.69.2,1.2,0,.58-.07,1.03-.21,1.35-.14.32-.36.55-.67.67-.31.13-.72.19-1.24.2-.23,0-.41-.07-.54-.2-.13-.13-.21-.31-.22-.53,0-.2.05-.37.19-.5s.31-.21.53-.22c.29-.02.48-.07.56-.15.09-.08.13-.24.13-.46,0-.33-.07-.55-.2-.64s-.41-.14-.85-.14-.71.05-.84.16c-.14.11-.2.34-.2.7v2.34h2.02c.7,0,1.18.16,1.44.48s.33.8.2,1.45c-.19.95-.49,1.78-.89,2.49.19.22.39.43.6.63.21.21.44.4.68.58.16.11.24.27.25.48.01.21-.04.38-.16.53-.14.17-.31.25-.52.27-.21.01-.4-.05-.56-.18-.21-.17-.41-.34-.6-.52s-.36-.36-.53-.56c-.14.16-.28.31-.43.46-.14.15-.29.3-.45.45-.15.14-.32.22-.52.24-.2.02-.38-.04-.52-.18-.03.19-.11.35-.24.46-.14.12-.3.18-.49.18ZM282.8,85.14c.41-.38.77-.77,1.07-1.17-.43-.75-.75-1.61-.98-2.57-.05-.21-.03-.39.08-.54h-.17v4.27ZM284.69,82.6c.07-.17.14-.35.2-.54.07-.18.12-.37.15-.56.06-.25.06-.42,0-.5s-.23-.12-.5-.12h-.47c.05.06.09.15.12.26.13.51.3,1,.51,1.47Z"/><path class="cls-2" d="M288.59,81.52c-.17-.16-.25-.35-.24-.57,0-.22.1-.42.28-.58.33-.31.67-.69,1.03-1.13.35-.44.68-.89.99-1.35.3-.47.54-.89.72-1.28.1-.22.25-.36.46-.42.21-.06.41-.04.6.05.2.11.33.26.4.45s.05.39-.05.59c-.24.51-.51,1.01-.84,1.51-.32.5-.66.98-1.02,1.43-.36.45-.71.85-1.06,1.21-.17.17-.38.27-.62.3-.24.04-.46-.04-.65-.22ZM299.27,86.32c-.19.13-.41.17-.65.13-.24-.04-.42-.16-.54-.35-.09-.13-.18-.27-.28-.42s-.21-.3-.33-.47c-.39.05-.85.11-1.37.17-.52.06-1.07.12-1.64.19s-1.15.13-1.71.2-1.09.12-1.58.18c-.49.05-.91.1-1.25.13-.27.03-.49-.03-.65-.16s-.26-.32-.29-.56c-.02-.21.04-.39.18-.55s.33-.24.58-.26c.17-.02.36-.03.57-.05.2-.01.43-.03.67-.05.17-.34.37-.73.59-1.18.22-.45.44-.92.66-1.4.22-.48.43-.94.62-1.38.19-.44.35-.81.47-1.13.09-.22.23-.37.43-.46s.41-.09.63-.01c.22.08.37.22.46.42s.09.41,0,.62c-.17.38-.37.82-.6,1.32-.24.51-.48,1.03-.75,1.56-.26.53-.51,1.03-.75,1.48.65-.06,1.31-.12,1.97-.19.66-.07,1.25-.12,1.79-.18-.2-.26-.4-.51-.6-.75s-.37-.45-.53-.62c-.14-.15-.21-.33-.2-.54,0-.21.09-.38.25-.51.17-.14.35-.21.56-.2.21,0,.39.09.54.24.21.22.44.48.71.78.26.3.53.62.8.96s.53.66.77.97c.24.31.46.6.64.85.14.2.19.42.16.65s-.15.42-.35.57ZM299.25,81.39c-.46-.36-.91-.75-1.33-1.18-.43-.43-.81-.88-1.16-1.35-.34-.47-.64-.93-.88-1.39-.11-.2-.2-.35-.28-.45-.08-.1-.19-.17-.31-.2-.13-.03-.31-.05-.54-.05h-.93c-.19,0-.36-.07-.5-.22-.14-.14-.21-.31-.21-.5s.07-.37.21-.51.3-.21.5-.21h.93c.49,0,.88.04,1.16.12.29.08.53.22.73.42.2.2.39.48.6.85.33.58.77,1.18,1.31,1.77s1.14,1.12,1.79,1.58c.2.13.32.31.36.55.04.24-.02.45-.16.64-.16.19-.36.3-.6.32-.24.02-.47-.04-.67-.19Z"/><path class="cls-2" d="M303.2,86.84c-.2,0-.37-.07-.52-.21-.14-.14-.22-.32-.22-.54v-9.16c0-.72.16-1.22.49-1.51.33-.29.87-.43,1.63-.43h.86c.77,0,1.32.14,1.64.43.33.29.49.79.49,1.51v.68c0,.48-.07.85-.22,1.12-.14.27-.37.45-.68.56s-.72.16-1.24.16h-1.5v6.65c0,.22-.07.4-.22.54-.14.14-.32.21-.53.21ZM303.95,78.28h1.36c.31,0,.52-.04.63-.11s.19-.23.2-.48h-2.2v.59ZM303.96,76.73h2.17c-.02-.24-.08-.39-.2-.46-.11-.07-.32-.11-.63-.11h-.52c-.3,0-.5.04-.62.11-.12.07-.19.23-.2.46ZM309.27,86.57c-.19,0-.36-.06-.49-.18-.13-.12-.2-.29-.2-.5v-2.4h-1.07c-.1.69-.31,1.27-.65,1.75s-.82.88-1.45,1.2c-.17.09-.36.11-.55.07-.19-.04-.34-.15-.43-.33-.08-.15-.09-.3-.05-.46s.16-.29.32-.39c.44-.24.77-.49,1-.77.23-.28.39-.63.46-1.08h-1.19c-.19,0-.34-.06-.45-.18-.11-.12-.16-.26-.16-.42,0-.17.05-.32.16-.44.11-.12.26-.18.45-.18h1.26v-1.02h-.92c-.17,0-.31-.05-.41-.16s-.15-.24-.15-.4.05-.29.15-.41.24-.17.41-.17h5.48c.18,0,.33.06.42.17.1.11.15.25.15.41s-.05.29-.15.4c-.1.11-.24.16-.42.16h-.85v1.02h1.2c.19,0,.34.06.44.18.11.12.16.26.16.44,0,.17-.05.31-.16.42-.1.12-.25.18-.44.18h-1.2v2.4c0,.21-.07.38-.2.5-.14.12-.29.18-.48.18ZM307.57,82.28h1.01v-1.02h-1.01v1.02ZM311.6,86.77c-.25,0-.45-.07-.59-.2-.14-.14-.23-.32-.24-.54-.03-.21.03-.39.16-.55.13-.16.31-.25.52-.28.33-.04.53-.11.61-.2.07-.09.11-.25.11-.5v-5.05h-1.56c-.51,0-.92-.05-1.23-.16s-.54-.29-.69-.56c-.14-.27-.22-.64-.22-1.12v-.67c0-.72.17-1.23.5-1.52.33-.29.88-.43,1.64-.43h.92c.76,0,1.3.14,1.63.43.33.29.49.79.49,1.52v7.93c0,.66-.16,1.14-.48,1.44s-.84.45-1.56.45ZM309.93,76.73h2.24c-.03-.24-.1-.39-.21-.46-.11-.07-.32-.1-.63-.1h-.56c-.3,0-.51.04-.63.1-.12.07-.19.22-.21.46ZM310.77,78.28h1.4v-.59h-2.24c.02.24.08.4.2.48.12.07.33.11.63.11Z"/><path class="cls-2" d="M85.42,48.94c0-15.38-15.42-27.89-34.37-27.89s-34.37,12.51-34.37,27.89c0,13.79,12.23,25.34,28.74,27.52,1.12.24,2.64.74,3.03,1.69.35.87.23,2.23.11,3.11,0,0-.4,2.43-.49,2.94-.15.87-.69,3.4,2.98,1.85,3.67-1.55,19.79-11.65,27.01-19.96h0c4.98-5.46,7.37-11.01,7.37-17.16ZM38.93,57.15c0,.37-.3.67-.67.67h-9.63c-.18,0-.34-.07-.46-.19,0,0,0,0,0,0,0,0,0,0,0-.01-.12-.12-.19-.28-.19-.46v-14.97c0-.37.3-.67.67-.67h2.41c.37,0,.67.3.67.67v11.89h6.55c.37,0,.67.3.67.67v2.41ZM44.74,57.15c0,.37-.3.67-.67.67h-2.41c-.37,0-.67-.3-.67-.67v-14.98c0-.37.3-.67.67-.67h2.41c.37,0,.67.3.67.67v14.98ZM61.33,57.15c0,.37-.3.67-.67.67h-2.41c-.06,0-.12,0-.17-.02h-.01s-.03-.01-.05-.02c0,0-.01,0-.02,0-.01,0-.02,0-.03-.01-.01,0-.02-.01-.03-.02,0,0-.01,0-.02-.01-.01,0-.03-.02-.04-.02,0,0,0,0,0,0-.06-.04-.12-.1-.17-.16l-6.87-9.28v8.89c0,.37-.3.67-.67.67h-2.41c-.37,0-.67-.3-.67-.67v-14.98c0-.37.3-.67.67-.67h2.41s.02,0,.02,0c.01,0,.02,0,.03,0,.01,0,.02,0,.03,0,0,0,.02,0,.03,0,.01,0,.03,0,.04,0,0,0,.02,0,.02,0,.01,0,.03,0,.04.01,0,0,.01,0,.02,0,.01,0,.03.01.04.02,0,0,.01,0,.02,0,.01,0,.02.01.03.02,0,0,.01,0,.02.01.01,0,.02.02.03.02,0,0,.01,0,.02.01.01,0,.02.02.04.03,0,0,0,0,.01.01.01.01.03.03.04.04,0,0,0,0,0,0,.02.02.04.04.05.07l6.86,9.27v-8.9c0-.37.3-.67.67-.67h2.41c.37,0,.67.3.67.67v14.98ZM74.65,44.58c0,.37-.3.67-.67.67h-6.55v2.53h6.55c.37,0,.67.3.67.67v2.41c0,.37-.3.67-.67.67h-6.55v2.53h6.55c.37,0,.67.3.67.67v2.41c0,.37-.3.67-.67.67h-9.63c-.18,0-.34-.07-.46-.19,0,0,0,0,0,0,0,0,0,0,0-.01-.12-.12-.19-.28-.19-.46v-14.97c0-.18.07-.34.19-.46,0,0,0,0,.01-.01,0,0,0,0,0,0,.12-.12.28-.19.46-.19h9.63c.37,0,.67.3.67.67v2.41Z"/><path class="cls-2" d="M.5,100.21v20.76c0,6.01,4.87,10.89,10.89,10.89h313.22c6.01,0,10.89-4.87,10.89-10.89v-20.76H.5Z"/><rect class="cls-3" x=".5" y=".5" width="335" height="131.36" rx="11.46" ry="11.46"/><path class="cls-1" d="M61.31,121.82c-.6,0-.9-.3-.9-.9v-8.89c0-.6.29-.9.87-.9s.89.3.89.9v8.16h4.67c.6,0,.9.27.9.81s-.3.82-.9.82h-5.53Z"/><path class="cls-1" d="M70.59,121.82c-.58,0-.87-.3-.87-.9v-8.89c0-.6.29-.9.87-.9s.89.3.89.9v8.89c0,.6-.3.9-.89.9Z"/><path class="cls-1" d="M75.23,121.82c-.58,0-.87-.3-.87-.9v-8.89c0-.6.29-.9.87-.9h.2c.46,0,.82.2,1.08.6l4.64,7v-6.69c0-.3.08-.52.24-.67.16-.15.38-.23.66-.23.59,0,.89.3.89.9v8.89c0,.6-.28.9-.84.9h-.15c-.47,0-.83-.2-1.08-.6l-4.75-7.21v6.9c0,.6-.3.9-.89.9Z"/><path class="cls-1" d="M86.73,121.82c-.6,0-.9-.3-.9-.9v-8.89c0-.6.3-.9.9-.9h5.35c.6,0,.9.27.9.82s-.3.81-.9.81h-4.49v2.78h4.02c.6,0,.9.27.9.82s-.3.82-.9.82h-4.02v2.99h4.66c.6,0,.9.27.9.81s-.3.82-.9.82h-5.51Z"/><path class="cls-1" d="M94.92,116.93c-.19-.18-.29-.4-.27-.66,0-.26.12-.49.32-.68.39-.37.79-.8,1.2-1.31.41-.51.8-1.04,1.15-1.58s.64-1.04.84-1.49c.11-.25.29-.42.53-.49.24-.07.48-.05.7.06.23.12.39.3.47.53.08.23.06.46-.05.69-.27.59-.6,1.18-.98,1.76-.38.59-.77,1.14-1.19,1.67-.42.52-.83,1-1.24,1.41-.2.19-.45.31-.73.35-.28.04-.53-.05-.76-.26ZM107.38,122.54c-.22.15-.48.2-.76.15-.28-.05-.49-.19-.63-.41-.1-.15-.21-.32-.33-.49-.12-.17-.25-.36-.39-.55-.46.06-.99.13-1.6.2s-1.24.15-1.92.22c-.67.08-1.34.15-1.99.23-.66.08-1.27.15-1.85.21-.58.06-1.06.11-1.46.15-.32.03-.57-.03-.76-.18-.19-.15-.31-.37-.34-.66-.02-.24.05-.46.21-.64.16-.18.39-.29.67-.31.2-.02.43-.04.66-.05.24-.02.5-.03.79-.05.2-.4.43-.86.69-1.38.25-.52.51-1.07.77-1.63.26-.57.5-1.1.73-1.61.22-.51.41-.95.55-1.31.1-.25.27-.43.5-.53.23-.1.48-.11.73-.02.25.09.44.26.54.5.11.24.11.48,0,.73-.19.44-.43.95-.7,1.54-.27.59-.57,1.2-.87,1.82-.31.62-.6,1.2-.87,1.73.76-.07,1.53-.15,2.3-.22.77-.08,1.46-.15,2.08-.21-.23-.31-.47-.6-.7-.88-.23-.28-.44-.52-.62-.73-.16-.17-.24-.38-.23-.63.01-.24.11-.44.29-.6.19-.16.41-.24.66-.23.24.01.45.1.63.27.24.25.52.56.83.91.31.35.62.72.93,1.12.32.39.62.77.9,1.14.29.37.53.7.75.99.16.23.23.49.19.76-.04.27-.17.49-.4.66ZM107.37,116.78c-.54-.42-1.06-.88-1.56-1.38-.5-.5-.95-1.03-1.35-1.58-.4-.55-.75-1.09-1.03-1.62-.12-.23-.23-.41-.33-.53-.1-.12-.22-.19-.37-.23-.15-.04-.36-.05-.63-.05h-1.08c-.22,0-.42-.08-.58-.25-.16-.17-.24-.36-.24-.59s.08-.43.24-.6.36-.24.58-.24h1.08c.57,0,1.02.05,1.36.14.34.09.62.25.85.49s.46.56.69.99c.39.68.9,1.37,1.53,2.07.63.7,1.33,1.31,2.09,1.84.23.15.37.37.42.64.05.27-.02.52-.19.75-.18.22-.42.35-.7.37-.29.03-.54-.05-.78-.22Z"/><path class="cls-1" d="M120.97,121.94c-.64-.76-1.23-1.81-1.77-3.15-.54-1.33-.94-3.01-1.21-5.04h-6.42c-.25,0-.46-.08-.62-.25-.16-.17-.24-.37-.24-.62s.08-.44.24-.6c.16-.17.36-.25.62-.25h6.23c-.02-.35-.04-.7-.05-1.07-.02-.37-.03-.74-.05-1.11,0-.29.09-.51.27-.68.18-.17.39-.25.65-.25s.47.08.65.24c.18.16.27.38.27.68-.01.38,0,.75,0,1.12s.03.73.05,1.08h4.23c.26,0,.47.08.63.25s.23.37.23.6-.08.45-.23.62-.36.25-.63.25h-4.05c.22,1.63.56,3.03,1.02,4.21s.96,2.05,1.52,2.63c.15.16.28.23.39.21s.21-.13.3-.31c.05-.11.11-.24.18-.39.07-.15.13-.27.17-.37.1-.23.26-.39.48-.47.22-.08.44-.07.66.02.23.1.39.26.48.47.09.21.09.42.02.63s-.15.42-.24.61-.19.41-.3.64c-.27.57-.61.95-1.01,1.15-.4.2-.81.22-1.25.08-.43-.15-.85-.46-1.24-.92ZM111.88,122.52c-.29.04-.52,0-.7-.15-.18-.14-.3-.34-.35-.6-.04-.26.01-.48.16-.65.15-.17.36-.27.63-.31.07,0,.3-.05.69-.11.39-.06.84-.13,1.37-.21v-3.3h-1.83c-.25,0-.46-.08-.6-.24-.15-.16-.22-.36-.22-.58s.07-.43.22-.59.35-.24.6-.24h5.32c.25,0,.45.08.6.24s.21.35.21.59-.07.42-.21.58c-.14.16-.34.24-.6.24h-1.59v2.99c.54-.08,1.02-.16,1.43-.23s.67-.11.77-.12c.26-.05.48-.02.65.09.17.11.27.29.31.53.05.24.02.45-.1.62s-.29.28-.53.33c-.09.02-.3.06-.61.11-.32.06-.7.12-1.15.21-.45.08-.92.17-1.41.25s-.95.17-1.4.25c-.44.08-.81.15-1.12.2s-.49.08-.56.09ZM122.88,111.81c-.18.15-.39.22-.63.2s-.45-.12-.62-.29c-.07-.08-.17-.19-.31-.31s-.26-.25-.4-.37c-.13-.12-.24-.22-.32-.29-.16-.14-.24-.33-.24-.55,0-.22.09-.42.25-.58.16-.17.35-.27.57-.29.22-.02.42.05.6.21.09.07.21.18.37.31.15.14.3.27.45.4.15.13.26.24.33.32.17.17.25.38.24.62s-.11.45-.3.62Z"/><path class="cls-1" d="M130.28,122.46c-.2.16-.43.23-.69.2-.25-.03-.46-.15-.63-.35-.16-.2-.23-.44-.2-.69.03-.26.15-.47.35-.63.69-.54,1.27-1.17,1.73-1.9.46-.73.78-1.52.95-2.39.18-.87.19-1.76.02-2.69-.04-.26,0-.5.15-.71.14-.21.34-.33.6-.37.26-.05.5,0,.71.14.21.14.33.35.37.61.02.07.03.15.04.23,0,.08.01.16.02.24.92-.05,1.61-.13,2.07-.24.46-.11.77-.23.93-.37.16-.14.24-.28.24-.42,0-.21-.07-.38-.2-.5-.13-.12-.42-.18-.86-.18h-8.08c-.25,0-.48-.09-.66-.28-.19-.18-.28-.4-.28-.66s.09-.49.28-.66.41-.27.66-.27h8.08c2.02,0,3.02.82,3.02,2.46,0,.61-.18,1.12-.53,1.52-.35.4-.91.71-1.67.92s-1.75.36-2.99.43c-.09,1.32-.44,2.55-1.04,3.68-.6,1.13-1.41,2.09-2.43,2.87Z"/><path class="cls-1" d="M142.5,122.31c-.19-.17-.3-.39-.31-.65-.01-.26.07-.49.24-.68.79-.85,1.47-1.82,2.04-2.89.56-1.07,1.01-2.24,1.32-3.49-.57.03-1.1.06-1.6.08-.49.03-.82.04-.97.05-.25.01-.48-.07-.67-.25-.19-.18-.3-.39-.31-.65-.01-.26.07-.49.24-.69.17-.19.39-.3.66-.31.11-.01.33-.02.64-.03.32,0,.68-.02,1.11-.04.42-.02.85-.03,1.28-.05.12-.76.2-1.55.23-2.37,0-.26.11-.49.31-.66.19-.18.42-.26.67-.24.26.01.49.11.66.3.18.19.26.42.24.68-.01.38-.04.75-.08,1.12s-.09.74-.14,1.11l.44-.03c1.11-.04,1.97.1,2.57.41.6.32.99.84,1.16,1.57.17.73.16,1.72-.03,2.95-.16,1.04-.39,1.88-.69,2.54-.3.65-.66,1.14-1.08,1.47-.42.33-.9.53-1.43.61-.53.08-1.1.06-1.73-.04-.25-.04-.46-.17-.61-.38s-.21-.45-.17-.7c.05-.26.18-.47.4-.62s.45-.2.7-.15c.34.06.64.08.92.05.27-.03.53-.14.76-.34.23-.19.43-.51.61-.95.18-.44.33-1.05.47-1.83.14-.8.18-1.41.12-1.81s-.24-.67-.54-.8c-.3-.13-.75-.19-1.35-.17-.15,0-.44.02-.87.05-.37,1.54-.89,2.98-1.56,4.32-.67,1.34-1.45,2.5-2.32,3.45-.17.19-.39.29-.65.3-.26,0-.49-.08-.68-.25Z"/><path class="cls-1" d="M160.25,122.58c-.23.1-.47.12-.72.05-.24-.07-.43-.22-.55-.45-.12-.23-.15-.48-.07-.73.08-.25.23-.43.47-.53,1.49-.67,2.62-1.43,3.41-2.26s1.32-1.78,1.6-2.83c.1-.36.16-.64.18-.86.02-.22-.02-.4-.1-.56-.08-.12-.23-.22-.44-.3s-.53-.13-.95-.17-.98-.05-1.68-.05-1.29.01-1.69.04c-.4.03-.7.07-.89.14-.19.07-.34.16-.44.28-.1.13-.15.35-.15.64,0,.3.06.76.16,1.39.05.25,0,.49-.15.7s-.36.34-.63.38c-.25.04-.49-.02-.69-.17-.21-.15-.34-.36-.39-.61-.1-.65-.17-1.2-.2-1.64-.03-.44,0-.82.08-1.14.08-.32.23-.6.46-.86.21-.24.46-.43.74-.57.28-.13.65-.23,1.12-.3.47-.07,1.07-.1,1.82-.11v-1.77c0-.26.09-.49.28-.67.18-.18.4-.28.66-.28s.49.09.67.28c.18.18.27.41.27.67v1.77c.71.02,1.3.07,1.77.14.47.07.85.18,1.15.34.3.15.55.36.76.63.3.4.43.85.41,1.34-.02.5-.13,1.1-.32,1.82-.21.78-.56,1.56-1.02,2.32-.47.76-1.1,1.48-1.9,2.15s-1.8,1.26-3.02,1.78Z"/><path class="cls-1" d="M173.02,115.21c-.39-.33-.82-.66-1.3-1.02-.48-.35-.91-.64-1.3-.86-.22-.14-.37-.34-.43-.59s-.03-.49.11-.71c.14-.22.34-.37.59-.44.25-.07.49-.03.71.11.28.17.59.38.94.63s.69.5,1.02.74c.33.24.6.45.82.63.2.16.32.37.36.63.04.26-.03.49-.19.7-.16.2-.38.32-.63.36s-.49-.03-.7-.19ZM171.7,121.22c-.24.09-.49.08-.73-.03-.24-.11-.4-.29-.5-.53-.09-.24-.08-.49.03-.73.11-.24.29-.4.53-.5.82-.29,1.64-.64,2.47-1.05.83-.42,1.62-.87,2.38-1.37.76-.49,1.45-1,2.08-1.53.63-.52,1.14-1.03,1.54-1.52.17-.2.39-.32.65-.35.26-.03.49.04.68.21.21.16.32.37.35.63.03.26-.04.49-.21.7-.42.51-.97,1.05-1.67,1.63-.69.58-1.46,1.14-2.32,1.7-.86.56-1.74,1.08-2.64,1.56-.91.48-1.79.87-2.64,1.18Z"/><path class="cls-1" d="M187.18,122.48c-.25,0-.47-.09-.66-.27s-.28-.4-.28-.66v-10.55c0-.26.09-.49.28-.66s.4-.27.66-.27.49.09.67.27c.18.18.27.4.27.66v3.68c.13-.2.32-.34.55-.4s.46-.04.69.07c.6.32,1.21.68,1.84,1.08s1.17.8,1.63,1.19c.2.16.32.38.34.65.03.27-.05.51-.22.71-.16.19-.38.3-.64.33-.26.03-.5-.04-.7-.21-.29-.22-.61-.46-.98-.72-.37-.25-.74-.5-1.12-.74-.37-.24-.71-.45-1.02-.62-.16-.09-.29-.2-.37-.34v5.87c0,.25-.09.47-.27.66-.18.18-.41.27-.67.27Z"/><path class="cls-1" d="M197.88,122.43c-.25.04-.48-.01-.69-.15s-.33-.34-.38-.58c-.06-.34-.11-.79-.14-1.38-.03-.58-.05-1.23-.06-1.96-.01-.72,0-1.47,0-2.25.01-.78.04-1.54.08-2.28.04-.74.09-1.41.16-2.02s.14-1.1.24-1.47c.06-.24.2-.43.41-.57.21-.13.44-.17.69-.11.24.06.43.2.56.41.13.21.17.44.11.69-.09.38-.17.85-.23,1.42-.06.57-.11,1.19-.15,1.87-.04.68-.07,1.37-.08,2.08-.02.71-.02,1.4,0,2.07,0,.67.03,1.27.07,1.82.04.54.08.99.15,1.34.05.24,0,.47-.15.67s-.34.33-.59.38ZM202.97,122.42c-.82,0-1.47-.2-1.96-.6-.49-.4-.74-.98-.74-1.73s.25-1.3.74-1.72c.49-.42,1.17-.63,2.04-.63.26,0,.53.02.81.05-.01-.48-.02-1-.04-1.57-.02-.57-.03-1.14-.05-1.73-.54.03-1.06.05-1.57.06-.5.01-.94.01-1.31,0-.25,0-.47-.1-.63-.28s-.25-.39-.24-.65c.02-.24.12-.45.3-.62.18-.17.39-.25.63-.24.36.01.78.01,1.26,0,.48,0,.99-.02,1.52-.05-.01-.39-.02-.76-.02-1.11v-1.01c0-.25.09-.47.26-.65.17-.18.39-.27.64-.27s.48.09.66.27c.17.18.26.39.26.65,0,.32,0,.64,0,.98s0,.68,0,1.02c.45-.04.86-.08,1.23-.12s.68-.08.94-.12c.24-.05.47,0,.67.15.2.15.33.34.37.59.04.24-.01.47-.16.67s-.34.32-.59.35c-.29.04-.64.08-1.06.13s-.88.09-1.37.13c.02.71.04,1.4.06,2.06.02.66.04,1.25.05,1.76.56.18,1.09.4,1.58.66.49.25.92.52,1.29.79.2.15.33.35.37.6.04.25-.01.48-.15.68s-.34.33-.59.38c-.25.05-.48,0-.68-.15-.25-.19-.53-.38-.84-.56-.31-.18-.62-.35-.95-.49-.1,1.56-1.02,2.34-2.75,2.34ZM202.97,120.69c.63,0,.95-.3.95-.9,0-.03,0-.07,0-.12,0-.05,0-.11,0-.17-.31-.06-.62-.09-.93-.09s-.55.06-.7.18c-.15.12-.22.28-.22.47s.07.35.21.46c.14.11.38.17.7.17Z"/><path class="cls-1" d="M220.98,121.39c-1.54.36-2.91.51-4.12.47-1.21-.05-2.21-.28-3.01-.69-.8-.42-1.36-1.01-1.67-1.77-.1-.23-.1-.47,0-.7.1-.23.27-.4.5-.49.23-.1.47-.1.7,0,.23.1.39.27.48.5.19.44.59.77,1.19,1.01.6.23,1.37.35,2.31.34.94,0,2.01-.16,3.2-.45.25-.06.47-.02.69.11.21.14.35.33.41.57.05.24.01.47-.12.69-.13.21-.32.35-.56.41ZM219.58,113.04c-.55-.14-1.14-.25-1.76-.33s-1.25-.12-1.86-.13c-.61,0-1.18.01-1.71.06-.25.03-.48-.03-.68-.18-.2-.15-.31-.36-.34-.61-.03-.25.03-.48.18-.68.15-.2.36-.31.61-.34.61-.06,1.28-.08,2.02-.05s1.45.08,2.15.16c.7.08,1.31.19,1.83.32.24.07.43.21.56.42.13.21.17.44.11.68-.05.24-.19.44-.41.57-.22.14-.45.18-.69.11Z"/><path class="cls-1" d="M230.05,122.86c-.25.01-.47-.07-.66-.25s-.29-.39-.31-.65c0-.25.07-.48.25-.66s.39-.28.65-.28c1.46-.04,2.5-.29,3.12-.74.63-.45.94-1.11.94-1.98,0-.48-.16-.86-.47-1.15s-.72-.46-1.22-.51c-.5-.06-1.06.02-1.66.24-.6.21-1.19.58-1.77,1.08-.15.13-.33.2-.53.21-.2,0-.38-.04-.56-.15-.16-.11-.28-.26-.35-.44-.07-.18-.08-.37-.03-.56.14-.49.27-1.06.38-1.73.11-.66.2-1.32.28-1.99-.5.01-.97.01-1.41,0-.44,0-.82-.02-1.15-.04-.25-.02-.45-.13-.6-.32-.16-.19-.23-.41-.21-.66.02-.24.13-.45.32-.6.19-.16.41-.23.66-.21.34.03.73.05,1.17.06.44.01.9.01,1.38,0,.02-.29.04-.55.05-.79,0-.24.01-.45.01-.63,0-.25.08-.47.25-.65s.38-.27.63-.28c.25,0,.47.07.66.24.18.17.28.39.28.64,0,.17,0,.38-.02.61-.02.23-.03.49-.05.76,1.02-.06,1.9-.18,2.64-.35.25-.05.47,0,.68.13.21.14.33.33.38.57.05.24,0,.47-.12.67-.13.2-.32.33-.56.38-.44.08-.93.15-1.48.21-.55.06-1.12.11-1.71.15-.05.45-.11.89-.18,1.32-.07.43-.14.82-.21,1.17.57-.33,1.15-.54,1.74-.66.59-.11,1.16-.13,1.71-.05s1.04.26,1.48.53.78.64,1.04,1.09c.25.45.38.99.38,1.61,0,1.45-.51,2.56-1.54,3.35-1.03.78-2.45,1.21-4.28,1.27Z"/><path class="cls-1" d="M243.18,122.37c-.25,0-.47-.09-.65-.26-.18-.17-.27-.39-.28-.64,0-.25.09-.47.26-.65.17-.18.39-.27.64-.28,2.85-.05,4.28-.87,4.28-2.44,0-.52-.18-.93-.53-1.22-.36-.29-.83-.44-1.42-.44-.65,0-1.33.16-2.02.48-.7.32-1.33.8-1.9,1.44-.13.15-.3.25-.51.28-.21.04-.4,0-.57-.08-.17-.08-.3-.21-.38-.39-.08-.18-.11-.36-.08-.56.07-.43.15-.89.24-1.39.09-.5.18-1.01.28-1.52.1-.51.2-.99.31-1.43.05-.25.19-.45.41-.57.22-.13.45-.16.69-.1.25.06.43.2.57.42.13.22.17.45.11.69-.07.29-.16.61-.25.99-.1.37-.2.77-.3,1.18,1.17-.79,2.33-1.19,3.47-1.19.75,0,1.41.14,1.97.43.56.29,1,.68,1.31,1.19s.47,1.1.47,1.79c0,1.27-.5,2.3-1.5,3.07s-2.53,1.18-4.58,1.21ZM245.63,112.81c-.33-.16-.7-.34-1.11-.53-.41-.19-.83-.37-1.24-.55-.41-.18-.78-.33-1.09-.45-.22-.09-.38-.26-.46-.5-.08-.24-.07-.48.03-.7.11-.23.29-.39.52-.47.23-.08.47-.07.7.02.34.13.7.28,1.09.45s.79.34,1.18.52c.4.18.76.35,1.08.51.22.11.38.28.48.51s.1.46,0,.69c-.1.22-.27.39-.5.49-.23.1-.47.1-.7,0Z"/><path class="cls-1" d="M256.33,122.19c-.25-.03-.46-.15-.61-.34-.15-.2-.21-.43-.18-.68.04-.25.16-.46.36-.61.2-.15.42-.21.66-.18.33.04.61.05.86.02.25-.03.46-.13.65-.31.19-.18.35-.48.5-.9.14-.42.27-.99.37-1.73.09-.64.1-1.14.02-1.5-.08-.36-.28-.61-.58-.75s-.76-.19-1.36-.15c-.24.83-.53,1.67-.87,2.5-.34.83-.71,1.63-1.12,2.38-.41.75-.86,1.42-1.34,2.02-.15.19-.35.31-.6.34-.25.04-.48-.02-.68-.18-.19-.16-.31-.37-.34-.62-.04-.25.03-.47.19-.66.6-.73,1.15-1.59,1.64-2.58.49-.99.91-2.01,1.25-3.05-.32.04-.64.08-.97.11-.33.04-.66.07-.99.1-.24.02-.47-.05-.66-.2-.2-.15-.31-.36-.34-.61-.02-.25.05-.48.21-.68.16-.2.36-.31.6-.33.44-.05.88-.09,1.33-.13.45-.04.89-.06,1.31-.08.21-.94.35-1.81.4-2.63.02-.25.12-.47.31-.63.18-.17.4-.24.66-.22.25.01.47.11.63.3s.24.41.22.66c-.03.38-.08.77-.15,1.18-.07.41-.14.82-.24,1.25,1.39.02,2.34.39,2.83,1.12.49.72.63,1.82.43,3.28-.16,1.26-.42,2.24-.79,2.93-.36.69-.83,1.15-1.42,1.38s-1.31.29-2.16.18ZM264.92,117.67c-.22.12-.46.15-.69.08-.24-.07-.43-.21-.56-.43-.17-.33-.39-.67-.66-1.04-.26-.37-.54-.72-.82-1.06-.28-.34-.55-.63-.8-.88-.18-.17-.28-.38-.29-.63-.01-.24.07-.46.24-.64.17-.18.38-.28.63-.29.25-.01.47.07.65.24.33.31.65.65.99,1.05.33.39.64.79.93,1.2s.53.79.73,1.16c.13.22.16.46.09.7-.07.24-.22.42-.44.53Z"/><path class="cls-1" d="M271.79,122.37c-.25,0-.47-.09-.65-.26-.18-.17-.27-.39-.28-.64,0-.25.09-.47.26-.65.17-.18.39-.27.64-.28,2.85-.05,4.28-.87,4.28-2.44,0-.52-.18-.93-.53-1.22-.36-.29-.83-.44-1.42-.44-.65,0-1.33.16-2.02.48-.7.32-1.33.8-1.9,1.44-.13.15-.3.25-.51.28-.21.04-.4,0-.57-.08-.17-.08-.3-.21-.38-.39-.08-.18-.11-.36-.08-.56.07-.43.15-.89.24-1.39.09-.5.18-1.01.28-1.52.1-.51.2-.99.31-1.43.05-.25.19-.45.41-.57.22-.13.45-.16.69-.1.25.06.43.2.57.42.13.22.17.45.11.69-.07.29-.16.61-.25.99-.1.37-.2.77-.3,1.18,1.17-.79,2.33-1.19,3.47-1.19.75,0,1.41.14,1.97.43.56.29,1,.68,1.31,1.19s.47,1.1.47,1.79c0,1.27-.5,2.3-1.5,3.07s-2.53,1.18-4.58,1.21ZM274.23,112.81c-.33-.16-.7-.34-1.11-.53-.41-.19-.83-.37-1.24-.55-.41-.18-.78-.33-1.09-.45-.22-.09-.38-.26-.46-.5-.08-.24-.07-.48.03-.7.11-.23.29-.39.52-.47.23-.08.47-.07.7.02.34.13.7.28,1.09.45s.79.34,1.18.52c.4.18.76.35,1.08.51.22.11.38.28.48.51s.1.46,0,.69c-.1.22-.27.39-.5.49-.23.1-.47.1-.7,0Z"/></g></svg>